<svg width="640" height="512" viewBox="0 0 640 512" fill="none" xmlns="http://www.w3.org/2000/svg">
<g clip-path="url(#clip0_16_84)">
<path d="M218.3 8.49999C230.6 -2.80001 249.5 -2.80001 261.7 8.49999L469.7 200.5C476.4 206.7 480 215.3 480 224H336C316.9 224 299.7 232.4 288 245.7V208C288 199.2 280.8 192 272 192H208C199.2 192 192 199.2 192 208V272C192 280.8 199.2 288 208 288H272V416H112C85.5 416 64 394.5 64 368V256H32C18.8 256 6.99999 247.9 2.19999 235.7C-2.60001 223.5 0.599993 209.5 10.3 200.5L218.3 8.49999ZM352 304V448H544V304H352ZM304 288C304 270.3 318.3 256 336 256H560C577.7 256 592 270.3 592 288V448H624C632.8 448 640 455.2 640 464C640 490.5 618.5 512 592 512H544H352H304C277.5 512 256 490.5 256 464C256 455.2 263.2 448 272 448H304V288Z" fill="white"/>
</g>
<defs>
<clipPath id="clip0_16_84">
<rect width="640" height="512" fill="white"/>
</clipPath>
</defs>
</svg>
