<svg width="292" height="234" viewBox="0 0 292 234" fill="none" xmlns="http://www.w3.org/2000/svg">
<path d="M146 233C170.106 233 191.947 223.212 207.67 207.353L72.5031 100.869C64.4375 117.498 59 133.448 59 146C59 194.031 97.9687 233 146 233ZM229.919 168.973C231.912 161.678 233 153.975 233 146C233 104.675 174.003 27.1453 157.509 6.30155C154.791 2.90311 150.758 0.999984 146.408 0.999984H145.592C141.242 0.999984 137.209 2.90311 134.491 6.30155C126.878 15.9531 110.067 37.839 94.2531 62.625L18.5812 3.31092C13.8687 -0.404704 7.02655 0.456234 3.31092 5.16873C-0.404704 9.88123 0.456234 16.7234 5.16873 20.439L273.419 230.689C278.131 234.405 284.973 233.544 288.689 228.831C292.405 224.119 291.544 217.277 286.831 213.561L229.919 168.973ZM102.5 153.25C102.5 173.278 118.722 189.5 138.75 189.5C142.737 189.5 146 192.762 146 196.75C146 200.737 142.737 204 138.75 204C110.702 204 88 181.298 88 153.25C88 149.262 91.2625 146 95.25 146C99.2375 146 102.5 149.262 102.5 153.25Z" fill="white"/>
</svg>
