<svg width="100" height="100" viewBox="0 0 100 100" fill="none" xmlns="http://www.w3.org/2000/svg">
<path d="M50 100C63.2608 100 75.9785 94.7322 85.3553 85.3553C94.7322 75.9785 100 63.2608 100 50C100 36.7392 94.7322 24.0215 85.3553 14.6447C75.9785 5.26784 63.2608 0 50 0C36.7392 0 24.0215 5.26784 14.6447 14.6447C5.26784 24.0215 0 36.7392 0 50C0 63.2608 5.26784 75.9785 14.6447 85.3553C24.0215 94.7322 36.7392 100 50 100ZM33.1641 32.2852C34.707 27.9297 38.8477 25 43.4766 25H54.8633C61.6797 25 67.1875 30.5273 67.1875 37.3242C67.1875 41.7383 64.8242 45.8203 60.9961 48.0273L54.6875 51.6406C54.6484 54.1797 52.5586 56.25 50 56.25C47.4023 56.25 45.3125 54.1602 45.3125 51.5625V48.9258C45.3125 47.2461 46.2109 45.7031 47.6758 44.8633L56.3281 39.9023C57.2461 39.375 57.8125 38.3984 57.8125 37.3437C57.8125 35.7031 56.4844 34.3945 54.8633 34.3945H43.4766C42.8125 34.3945 42.2266 34.8047 42.0117 35.4297L41.9336 35.6641C41.0742 38.1055 38.3789 39.375 35.957 38.5156C33.5352 37.6562 32.2461 34.9609 33.1055 32.5391L33.1836 32.3047L33.1641 32.2852ZM43.75 68.75C43.75 67.0924 44.4085 65.5027 45.5806 64.3306C46.7527 63.1585 48.3424 62.5 50 62.5C51.6576 62.5 53.2473 63.1585 54.4194 64.3306C55.5915 65.5027 56.25 67.0924 56.25 68.75C56.25 70.4076 55.5915 71.9973 54.4194 73.1694C53.2473 74.3415 51.6576 75 50 75C48.3424 75 46.7527 74.3415 45.5806 73.1694C44.4085 71.9973 43.75 70.4076 43.75 68.75Z" fill="#352A6F"/>
</svg>
