<svg width="278" height="219" viewBox="0 0 278 219" fill="none" xmlns="http://www.w3.org/2000/svg">
<path d="M70.2847 5.08393C67.2992 1.85759 63.139 0 58.7341 0C54.3292 0 50.169 1.85759 47.1835 5.08393L4.11339 52.0125C-1.71087 58.3674 -1.31932 68.2909 5.09225 74.108C11.5038 79.9252 21.3904 79.5342 27.2146 73.1304L43.0722 55.8743V203.357C43.0722 212.01 50.0711 219 58.7341 219C67.3971 219 74.3959 212.01 74.3959 203.357V55.8743L90.2536 73.1792C96.0778 79.5342 106.013 79.9741 112.376 74.1569C118.739 68.3397 119.179 58.4163 113.355 52.0614L70.2847 5.13281V5.08393ZM152.705 219H168.367C177.03 219 184.029 212.01 184.029 203.357C184.029 194.705 177.03 187.714 168.367 187.714H152.705C144.042 187.714 137.043 194.705 137.043 203.357C137.043 212.01 144.042 219 152.705 219ZM152.705 156.429H199.691C208.354 156.429 215.353 149.438 215.353 140.786C215.353 132.133 208.354 125.143 199.691 125.143H152.705C144.042 125.143 137.043 132.133 137.043 140.786C137.043 149.438 144.042 156.429 152.705 156.429ZM152.705 93.8571H231.014C239.677 93.8571 246.676 86.8667 246.676 78.2143C246.676 69.5618 239.677 62.5714 231.014 62.5714H152.705C144.042 62.5714 137.043 69.5618 137.043 78.2143C137.043 86.8667 144.042 93.8571 152.705 93.8571ZM152.705 31.2857H262.338C271.001 31.2857 278 24.2953 278 15.6429C278 6.9904 271.001 0 262.338 0H152.705C144.042 0 137.043 6.9904 137.043 15.6429C137.043 24.2953 144.042 31.2857 152.705 31.2857Z" fill="white"/>
</svg>
