<svg width="134" height="91" viewBox="0 0 134 91" fill="none" xmlns="http://www.w3.org/2000/svg">
<path d="M62.6962 2.2463C65.2785 0.410168 68.7216 0.410168 71.3039 2.2463C76.5382 5.84884 82.9358 8.31251 89.3334 8.31251C95.5914 8.31251 102.222 5.80236 107.34 2.2463C110.108 0.270715 113.877 0.433409 116.459 2.64142C119.809 5.40724 124.02 7.52228 128.231 8.49845C132.232 9.42814 134.721 13.4258 133.791 17.4234C132.86 21.4211 128.859 23.908 124.857 22.9783C119.158 21.6535 114.412 19.1434 111.318 17.1678C104.571 20.7936 97.0105 23.1875 89.3334 23.1875C81.9122 23.1875 75.2355 20.8865 70.6292 18.7947C69.2799 18.1672 68.0469 17.5629 67 17.0051C65.9532 17.5629 64.7434 18.1904 63.3709 18.7947C58.7646 20.8865 52.0879 23.1875 44.6667 23.1875C36.9896 23.1875 29.4289 20.7936 22.6823 17.191C19.565 19.1434 14.8424 21.6768 9.14275 23.0016C5.14136 23.9313 1.13997 21.4443 0.209414 17.4467C-0.721141 13.449 1.76809 9.45138 5.76948 8.52169C9.95698 7.52228 14.191 5.40724 17.5177 2.64142C20.1 0.433409 23.8688 0.293957 26.6372 2.2463C31.8018 5.80236 38.4087 8.31251 44.6667 8.31251C51.0643 8.31251 57.4618 5.84884 62.6962 2.2463ZM71.3039 69.1838C76.5382 72.7863 82.9358 75.25 89.3334 75.25C95.5914 75.25 102.222 72.7399 107.34 69.1838C110.108 67.2082 113.877 67.3709 116.459 69.5789C119.809 72.3447 124.02 74.4598 128.231 75.436C132.232 76.3656 134.721 80.3633 133.791 84.361C132.86 88.3586 128.859 90.8455 124.857 89.9158C119.158 88.591 114.412 86.0809 111.318 84.1053C104.571 87.7311 97.0105 90.125 89.3334 90.125C81.9122 90.125 75.2355 87.824 70.6292 85.7322C69.2799 85.1047 68.0469 84.5004 67 83.9426C65.9532 84.5004 64.7434 85.1279 63.3709 85.7322C58.7646 87.824 52.0879 90.125 44.6667 90.125C36.9896 90.125 29.4289 87.7311 22.6823 84.1285C19.565 86.0809 14.8424 88.6143 9.14275 89.9391C5.14136 90.8688 1.13997 88.3818 0.209414 84.3842C-0.721141 80.3865 1.76809 76.3889 5.76948 75.4592C9.98025 74.483 14.191 72.368 17.541 69.6022C20.1233 67.4174 23.8921 67.2547 26.6605 69.207C31.8018 72.7399 38.4087 75.25 44.6667 75.25C51.0643 75.25 57.4618 72.7863 62.6962 69.1838C65.2785 67.3477 68.7216 67.3477 71.3039 69.1838ZM71.3039 35.715C76.5382 39.3176 82.9358 41.7813 89.3334 41.7813C95.5914 41.7813 102.222 39.2711 107.34 35.715C110.108 33.7395 113.877 33.9022 116.459 36.1102C119.809 38.876 124.02 40.991 128.231 41.9672C132.232 42.8969 134.721 46.8945 133.791 50.8922C132.86 54.8899 128.859 57.3768 124.857 56.4471C119.158 55.1223 114.412 52.6121 111.318 50.6365C104.571 54.2623 97.0105 56.6563 89.3334 56.6563C81.9122 56.6563 75.2355 54.3553 70.6292 52.2635C69.2799 51.6359 68.0469 51.0317 67 50.4738C65.9532 51.0317 64.7434 51.6592 63.3709 52.2635C58.7646 54.3553 52.0879 56.6563 44.6667 56.6563C36.9896 56.6563 29.4289 54.2623 22.6823 50.6598C19.565 52.6121 14.8424 55.1455 9.14275 56.4703C5.14136 57.4 1.13997 54.9131 0.209414 50.9154C-0.721141 46.9178 1.76809 42.9201 5.76948 41.9904C9.98025 41.0143 14.191 38.8992 17.541 36.1334C20.1233 33.9254 23.8921 33.7859 26.6605 35.7383C31.8018 39.2711 38.4087 41.7813 44.6667 41.7813C51.0643 41.7813 57.4618 39.3176 62.6962 35.715C65.2785 33.8789 68.7216 33.8789 71.3039 35.715Z" fill="white"/>
</svg>
